<svg xmlns="http://www.w3.org/2000/svg" width="43" height="32" viewBox="0 0 43 32"><path fill="#fff" d="M21.333 1.778l-3.716 3.716 3.716 3.716M7.591 0L5.333 2.258l8.409 8.409H5.333v10.667h7.111l8.889 8.889V18.259l7.556 7.573c-1.191.907-2.524 1.653-4 2.08v3.68a16.02 16.02 0 0 0 6.542-3.218l3.644 3.627 2.258-2.258-16-16M33.778 16c0 1.671-.356 3.236-.96 4.693l2.684 2.684a15.843 15.843 0 0 0 1.831-7.378C37.333 8.39 32 2.026 24.889.408V4.07c5.138 1.529 8.889 6.293 8.889 11.929M29.333 16a7.937 7.937 0 0 0-4.444-7.164v3.929l4.356 4.356c.089-.356.089-.747.089-1.12z"/></svg>